<?xml version="1.0" encoding="UTF-8"?>
<svg xmlns="http://www.w3.org/2000/svg" xmlns:xlink="http://www.w3.org/1999/xlink" width="86pt" height="35pt" viewBox="0 0 86 35" version="1.1">
<g id="surface1">
<path style=" stroke:none;fill-rule:nonzero;fill-opacity:1;" d="M 4.21875 26.109375 C 4.21875 22.675781 3.929688 19.242188 3.859375 15.738281 C 3.859375 15.378906 3.859375 15.09375 3.859375 14.734375 C 3.929688 14.878906 3.929688 14.949219 4.003906 15.09375 C 4.582031 16.453125 5.085938 17.738281 5.882812 18.957031 C 6.605469 20.171875 6.964844 21.53125 7.398438 22.890625 C 7.253906 23.105469 7.109375 23.246094 7.183594 23.460938 C 7.183594 23.605469 7.253906 23.675781 7.398438 23.746094 C 7.90625 24.175781 8.988281 23.960938 9.496094 23.746094 C 9.710938 23.675781 10 23.535156 10.21875 23.390625 C 10.507812 23.175781 10.941406 22.816406 10.867188 22.390625 C 10.867188 22.316406 10.796875 22.246094 10.796875 22.175781 C 11.230469 21.101562 11.375 20.027344 11.589844 18.882812 C 11.808594 17.667969 12.242188 16.523438 12.675781 15.449219 C 12.746094 15.949219 12.746094 16.453125 12.820312 17.023438 C 12.964844 19.171875 12.820312 21.246094 12.820312 23.390625 C 12.820312 24.105469 12.890625 24.75 13.035156 25.464844 C 13.109375 25.75 13.324219 26.964844 13.253906 27.039062 C 12.746094 27.539062 12.890625 28.109375 13.613281 28.253906 C 14.410156 28.398438 15.351562 28.183594 15.929688 27.609375 C 16.941406 26.679688 16.433594 25.25 16.21875 24.035156 C 15.855469 22.101562 16.289062 19.886719 16.21875 17.882812 C 16.144531 15.664062 15.785156 13.375 15.785156 11.160156 C 15.785156 9.371094 16.144531 7.4375 15.496094 5.722656 C 15.566406 5.507812 15.566406 5.292969 15.640625 5.148438 C 15.785156 4.292969 12.890625 4.722656 12.386719 5.507812 C 12.097656 5.722656 11.953125 6.007812 12.097656 6.292969 C 12.097656 6.367188 12.167969 6.4375 12.167969 6.507812 C 11.589844 9.15625 10.867188 11.800781 9.929688 14.378906 C 9.566406 15.378906 9.207031 16.308594 8.84375 17.308594 C 8.339844 16.378906 7.832031 15.449219 7.472656 14.449219 C 6.316406 11.585938 5.230469 8.65625 3.859375 5.9375 C 4.003906 4.648438 1.183594 4.792969 0.605469 5.9375 C -0.0429688 7.367188 0.0273438 8.796875 0.246094 10.300781 C 0.535156 12.015625 0.535156 13.664062 0.535156 15.378906 C 0.605469 18.667969 0.824219 22.03125 0.894531 25.320312 C 0.605469 25.679688 0.535156 26.035156 0.824219 26.464844 C 0.96875 26.679688 1.113281 26.753906 1.328125 26.894531 C 2.125 27.46875 4.292969 26.964844 4.292969 25.820312 Z M 4.21875 26.109375 "/>
<path style=" stroke:none;fill-rule:nonzero;fill-opacity:1;" d="M 22.503906 7.867188 C 22.433594 7.222656 19.109375 7.941406 19.179688 8.726562 C 19.46875 10.515625 19.324219 12.230469 19.324219 14.019531 C 19.324219 15.738281 19.6875 17.308594 19.976562 18.957031 C 20.191406 20.671875 19.902344 22.460938 20.121094 24.175781 C 20.191406 24.964844 20.769531 26.464844 20.191406 27.179688 C 19.832031 27.609375 21.421875 27.46875 21.492188 27.46875 C 22.144531 27.324219 23.011719 27.109375 23.445312 26.609375 C 24.023438 25.894531 23.589844 24.605469 23.515625 23.820312 C 23.226562 22.101562 23.445312 20.3125 23.371094 18.597656 C 23.300781 16.953125 22.722656 15.378906 22.722656 13.664062 C 22.722656 11.730469 22.867188 9.800781 22.578125 7.867188 Z M 22.503906 7.867188 "/>
<path style=" stroke:none;fill-rule:nonzero;fill-opacity:1;" d="M 25.613281 14.449219 C 26.550781 16.953125 30.308594 15.738281 32.191406 15.878906 C 35.441406 16.09375 34.503906 20.457031 34.503906 22.460938 C 34.503906 23.535156 35.515625 25.320312 34.648438 26.25 C 34.140625 26.824219 32.984375 26.824219 32.261719 26.894531 C 31.539062 26.964844 30.382812 27.179688 29.949219 26.539062 C 29.082031 25.320312 30.019531 23.390625 29.875 22.03125 C 29.804688 21.246094 26.40625 21.960938 26.550781 22.890625 C 26.839844 25.105469 25.394531 28.039062 28.574219 28.398438 C 30.671875 28.613281 32.984375 28.253906 34.9375 27.609375 C 35.949219 27.253906 36.886719 26.824219 37.683594 26.109375 C 38.550781 25.320312 38.261719 24.175781 38.042969 23.175781 C 37.464844 20.742188 38.695312 17.953125 37.03125 15.738281 C 35.296875 13.375 32.046875 15.09375 29.804688 14.449219 C 28.648438 14.089844 28.648438 12.519531 28.648438 11.585938 C 28.648438 10.371094 28.574219 9.300781 28.429688 8.15625 C 28.359375 7.296875 28.429688 6.367188 29.082031 5.722656 C 29.226562 5.578125 29.804688 5.4375 29.730469 5.4375 C 30.019531 5.363281 30.308594 5.363281 30.671875 5.363281 C 31.972656 5.292969 34.574219 5.578125 34.070312 7.4375 C 33.851562 8.296875 37.105469 7.796875 37.320312 6.9375 C 38.332031 3.074219 31.175781 3.863281 29.152344 4.363281 C 27.273438 4.863281 25.25 5.9375 25.105469 8.011719 C 25.035156 9.011719 25.324219 10.015625 25.394531 11.015625 C 25.46875 12.160156 25.25 13.304688 25.613281 14.449219 Z M 25.613281 14.449219 "/>
<path style=" stroke:none;fill-rule:nonzero;fill-opacity:1;" d="M 40.140625 16.308594 C 40.066406 18.097656 39.921875 19.886719 39.921875 21.671875 C 39.921875 22.601562 40.066406 23.535156 40.210938 24.390625 C 40.355469 25.25 40.644531 26.324219 40.355469 27.179688 C 40.140625 27.824219 43.390625 27.394531 43.609375 26.609375 C 44.042969 25.105469 43.390625 23.246094 43.246094 21.746094 C 43.101562 20.3125 43.246094 18.8125 43.320312 17.382812 C 45.054688 17.238281 46.714844 17.167969 48.453125 17.382812 C 48.523438 18.527344 48.597656 19.671875 48.742188 20.816406 C 48.8125 21.816406 48.886719 22.746094 48.886719 23.746094 C 48.886719 24.605469 49.03125 25.820312 48.667969 26.609375 C 48.019531 28.324219 51.34375 28.183594 51.847656 26.894531 C 52.425781 25.320312 52.28125 23.390625 52.136719 21.746094 C 51.992188 19.671875 51.703125 17.667969 51.632812 15.59375 C 51.558594 12.445312 51.054688 9.300781 51.054688 6.152344 C 51.054688 4.507812 47.730469 5.078125 47.730469 6.4375 C 47.730469 9.441406 48.164062 12.445312 48.308594 15.449219 C 48.308594 15.523438 48.308594 15.59375 48.308594 15.664062 C 46.644531 15.664062 44.980469 15.808594 43.390625 15.878906 C 43.535156 12.015625 42.886719 8.15625 43.03125 4.292969 C 43.03125 3.792969 39.777344 4.21875 39.707031 5.148438 C 39.5625 8.871094 40.210938 12.589844 40.066406 16.378906 Z M 40.140625 16.308594 "/>
<path style=" stroke:none;fill-rule:nonzero;fill-opacity:1;" d="M 54.234375 21.671875 C 53.945312 21.960938 54.089844 22.101562 54.304688 22.175781 C 54.304688 23.605469 54.234375 25.105469 54.160156 26.539062 C 53.726562 27.179688 54.523438 27.46875 55.101562 27.46875 C 55.101562 27.46875 55.171875 27.46875 55.171875 27.46875 C 55.824219 27.46875 57.414062 27.179688 57.484375 26.324219 C 57.628906 24.535156 57.703125 22.816406 57.703125 21.03125 C 59.074219 19.597656 60.160156 18.027344 61.097656 16.308594 C 61.75 17.523438 62.328125 18.8125 62.761719 20.171875 C 63.484375 22.460938 64.714844 24.605469 65.4375 26.894531 C 65.871094 28.398438 69.195312 27.539062 68.761719 26.035156 C 68.039062 23.746094 66.882812 21.601562 66.085938 19.3125 C 65.292969 17.023438 64.0625 14.949219 63.050781 12.804688 C 63.917969 11.160156 64.785156 9.511719 65.507812 7.867188 C 66.230469 6.367188 66.738281 4.648438 68.109375 3.578125 C 68.617188 3.21875 68.542969 2.859375 67.894531 2.789062 C 67.171875 2.71875 66.160156 2.933594 65.582031 3.433594 C 64.351562 4.433594 63.558594 5.578125 62.90625 7.011719 C 62.109375 8.726562 61.316406 10.441406 60.449219 12.089844 C 60.375 12.230469 60.304688 12.304688 60.230469 12.445312 C 59.796875 12.730469 59.582031 13.089844 59.726562 13.519531 C 59.074219 14.804688 58.351562 16.09375 57.628906 17.382812 C 57.339844 12.730469 56.835938 8.15625 56.691406 3.503906 C 56.617188 2.433594 53.367188 3.074219 53.367188 4.363281 C 53.582031 10.085938 54.378906 15.878906 54.449219 21.601562 C 54.449219 21.601562 54.449219 21.601562 54.378906 21.671875 Z M 54.234375 21.671875 "/>
<path style=" stroke:none;fill-rule:nonzero;fill-opacity:1;" d="M 85.890625 15.449219 C 85.746094 14.734375 84.734375 14.734375 83.9375 14.804688 C 83.9375 14.519531 83.9375 14.234375 83.9375 13.949219 C 83.867188 11.730469 83.792969 9.441406 83.578125 7.222656 C 83.433594 5.148438 82.203125 4.433594 80.253906 4.507812 C 78.226562 4.578125 75.84375 4.933594 73.890625 5.652344 C 71.652344 6.507812 70.421875 8.082031 70.0625 10.371094 C 69.628906 12.875 70.277344 15.59375 70.351562 18.097656 C 70.496094 21.03125 70.421875 23.960938 70.421875 26.894531 C 70.421875 27.394531 73.746094 26.894531 73.746094 26.035156 C 73.746094 23.746094 73.820312 21.386719 73.746094 19.097656 C 73.746094 18.382812 73.675781 17.738281 73.675781 17.023438 C 74.832031 16.523438 76.78125 17.023438 77.9375 17.167969 C 78.878906 17.238281 79.746094 17.023438 80.6875 16.953125 C 80.6875 18.882812 80.757812 20.816406 80.832031 22.746094 C 80.902344 23.746094 81.265625 25.679688 80.542969 26.539062 C 80.179688 26.964844 81.769531 26.824219 81.84375 26.824219 C 82.492188 26.679688 83.359375 26.464844 83.792969 25.964844 C 84.589844 25.035156 84.15625 22.816406 84.15625 21.671875 C 84.082031 20.101562 84.082031 18.453125 84.011719 16.882812 C 85.023438 16.738281 86.035156 16.164062 85.890625 15.449219 Z M 79.167969 15.308594 C 77.214844 15.234375 75.335938 14.949219 73.53125 15.378906 C 73.457031 14.304688 73.3125 13.304688 73.242188 12.230469 C 73.097656 10.300781 73.3125 7.582031 75.191406 6.367188 C 75.699219 6.078125 76.636719 6.078125 77.214844 6.007812 C 78.011719 5.867188 78.878906 5.652344 79.601562 6.152344 C 80.613281 6.796875 80.398438 9.226562 80.398438 10.230469 C 80.398438 11.875 80.542969 13.589844 80.6875 15.234375 C 80.253906 15.308594 79.746094 15.308594 79.242188 15.308594 Z M 79.167969 15.308594 "/>
<path style=" stroke:none;fill-rule:nonzero;fill-opacity:1;" d="M 18.820312 4.078125 C 18.746094 4.21875 18.820312 4.433594 18.964844 4.578125 C 18.964844 4.648438 18.964844 4.648438 18.964844 4.722656 C 18.964844 4.792969 18.964844 4.933594 18.964844 5.007812 C 19.035156 5.222656 19.179688 5.363281 19.324219 5.4375 C 19.6875 5.652344 20.046875 5.652344 20.410156 5.652344 C 20.84375 5.578125 21.277344 5.4375 21.636719 5.222656 C 21.710938 5.148438 21.78125 5.078125 21.855469 5.007812 C 22.289062 4.722656 22.648438 4.292969 22.503906 3.863281 C 22.070312 2.933594 22.144531 2.003906 22.144531 1 C 22.144531 0.214844 21.347656 -0.0703125 20.625 0 C 20.046875 0.0703125 18.820312 0.5 18.820312 1.289062 C 18.820312 2.144531 18.746094 3.003906 18.890625 3.792969 C 18.820312 3.863281 18.820312 4.003906 18.820312 4.078125 Z M 18.820312 4.078125 "/>
<path style=" stroke:none;fill-rule:nonzero;fill-opacity:1;" d="M 80.613281 33.046875 C 79.023438 32.472656 77.289062 32.402344 75.769531 32.261719 C 74.179688 32.117188 72.519531 31.832031 70.855469 31.6875 C 69.195312 31.757812 67.53125 31.6875 65.871094 31.832031 L 60.953125 32.117188 C 54.449219 32.402344 47.875 32.402344 41.367188 32.1875 C 34.792969 32.046875 28.285156 31.6875 21.636719 31.757812 C 18.3125 31.757812 15.058594 31.832031 11.734375 31.972656 C 10.074219 32.261719 8.484375 32.472656 6.820312 32.902344 C 5.230469 33.332031 3.640625 33.832031 1.980469 33.976562 C 3.640625 34.335938 5.304688 34.261719 6.964844 34.261719 C 8.554688 34.261719 10.21875 34.40625 11.878906 34.476562 C 15.132812 34.335938 18.386719 34.261719 21.636719 34.191406 C 28.140625 34.191406 34.71875 34.546875 41.296875 34.621094 C 47.875 34.761719 54.449219 34.835938 61.027344 34.476562 L 65.941406 34.191406 C 67.53125 34.121094 69.121094 34.046875 70.785156 34.121094 C 72.445312 33.976562 74.035156 33.761719 75.699219 33.617188 C 77.359375 33.40625 78.953125 32.976562 80.542969 33.117188 L 80.613281 33.117188 L 80.613281 33.046875 C 80.613281 32.902344 80.542969 32.761719 80.542969 32.546875 C 80.542969 32.6875 80.46875 32.832031 80.46875 32.902344 Z M 80.613281 33.046875 "/>
</g>
</svg>
