<svg xmlns="http://www.w3.org/2000/svg" width="86pt" height="35pt" viewBox="0 0 86 35"><path d="M4.219 26.11c0-3.434-.29-6.868-.36-10.372v-1.004c.07.145.07.215.145.36.578 1.36 1.082 2.644 1.879 3.863.722 1.215 1.082 2.574 1.515 3.934-.144.214-.289.355-.214.57 0 .144.07.215.214.285.508.43 1.59.215 2.098 0 .215-.07.504-.21.723-.355.289-.215.722-.575.648-1 0-.075-.07-.145-.07-.215.433-1.074.578-2.149.793-3.293.219-1.215.652-2.36 1.086-3.434.07.5.07 1.004.144 1.574.145 2.149 0 4.223 0 6.368 0 .714.07 1.359.215 2.074.074.285.29 1.5.219 1.574-.508.5-.363 1.07.36 1.215.796.144 1.738-.07 2.316-.645 1.011-.93.504-2.359.289-3.574-.364-1.933.07-4.148 0-6.152-.074-2.219-.434-4.508-.434-6.723 0-1.789.36-3.723-.289-5.437.07-.215.07-.43.145-.575.144-.855-2.75-.425-3.254.36-.29.215-.434.5-.29.785 0 .074.071.144.071.215-.578 2.648-1.3 5.293-2.238 7.87-.364 1-.723 1.93-1.086 2.93-.504-.93-1.012-1.859-1.371-2.859-1.157-2.863-2.243-5.793-3.614-8.511.145-1.29-2.675-1.145-3.254 0C-.043 7.367.027 8.796.246 10.3c.29 1.715.29 3.363.29 5.078.07 3.289.288 6.652.359 9.941-.29.36-.36.715-.07 1.145.144.215.288.289.503.43.797.574 2.965.07 2.965-1.075zM22.504 7.867c-.07-.644-3.395.074-3.324.86.289 1.789.144 3.503.144 5.293 0 1.718.363 3.289.653 4.937.214 1.715-.075 3.504.144 5.219.07.789.649 2.289.07 3.004-.359.43 1.23.289 1.301.289.653-.145 1.52-.36 1.953-.86.578-.714.145-2.004.07-2.789-.288-1.718-.07-3.508-.144-5.222-.07-1.645-.648-3.22-.648-4.934 0-1.934.144-3.863-.145-5.797zm3.109 6.583c.938 2.503 4.696 1.288 6.578 1.429 3.25.215 2.313 4.578 2.313 6.582 0 1.074 1.012 2.86.144 3.789-.507.574-1.664.574-2.386.645-.723.07-1.88.285-2.313-.356-.867-1.219.07-3.148-.074-4.508-.07-.785-3.469-.07-3.324.86.289 2.214-1.156 5.148 2.023 5.507 2.098.215 4.41-.144 6.363-.789 1.012-.355 1.95-.785 2.747-1.5.867-.789.578-1.933.359-2.933-.578-2.434.652-5.223-1.012-7.438-1.734-2.363-4.984-.644-7.226-1.289-1.157-.36-1.157-1.93-1.157-2.863a26.6 26.6 0 00-.218-3.43c-.07-.86 0-1.789.652-2.433.145-.145.723-.285.648-.285.29-.075.579-.075.942-.075 1.3-.07 3.902.215 3.398 2.074-.218.86 3.035.36 3.25-.5 1.012-3.863-6.144-3.074-8.168-2.574-1.879.5-3.902 1.574-4.047 3.649-.07 1 .22 2.004.29 3.004.074 1.144-.145 2.289.218 3.433zm14.527 1.859c-.074 1.789-.218 3.578-.218 5.363 0 .93.144 1.863.289 2.719.144.859.434 1.933.144 2.789-.214.644 3.036.215 3.254-.57.434-1.505-.218-3.364-.363-4.864-.144-1.433 0-2.933.074-4.363 1.735-.145 3.395-.215 5.133 0 .07 1.144.145 2.289.29 3.433.07 1 .144 1.93.144 2.93 0 .86.144 2.074-.219 2.863-.648 1.715 2.676 1.575 3.18.286.578-1.575.433-3.504.289-5.149-.145-2.074-.434-4.078-.504-6.152-.074-3.149-.578-6.293-.578-9.442 0-1.644-3.325-1.074-3.325.285 0 3.004.434 6.008.579 9.012v.215c-1.664 0-3.329.145-4.918.215.144-3.863-.504-7.723-.36-11.586 0-.5-3.254-.074-3.324.855-.145 3.723.504 7.442.36 11.23zm14.094 5.363c-.289.289-.144.43.07.504 0 1.43-.07 2.93-.144 4.363-.433.64.363.93.942.93h.07c.652 0 2.242-.29 2.312-1.145.145-1.789.22-3.508.22-5.293 1.37-1.433 2.456-3.004 3.394-4.722a22.9 22.9 0 011.664 3.863c.722 2.289 1.953 4.433 2.675 6.723.434 1.503 3.758.644 3.325-.86-.723-2.289-1.88-4.433-2.676-6.723-.793-2.289-2.023-4.363-3.035-6.507.867-1.645 1.734-3.293 2.457-4.938.722-1.5 1.23-3.219 2.601-4.289.508-.36.434-.719-.214-.789-.723-.07-1.735.145-2.313.645-1.23 1-2.023 2.144-2.676 3.578-.797 1.715-1.59 3.43-2.457 5.078-.074.14-.144.215-.219.355-.433.285-.648.645-.503 1.075-.653 1.285-1.375 2.574-2.098 3.863-.29-4.653-.793-9.227-.938-13.88-.074-1.07-3.324-.429-3.324.86.215 5.723 1.012 11.516 1.082 17.239l-.07.07zM85.89 15.45c-.144-.716-1.156-.716-1.953-.645v-.856c-.07-2.219-.144-4.508-.359-6.726-.144-2.075-1.375-2.79-3.324-2.715-2.027.07-4.41.426-6.363 1.144-2.239.856-3.47 2.43-3.829 4.72-.433 2.503.215 5.222.29 7.726.144 2.933.07 5.863.07 8.797 0 .5 3.324 0 3.324-.86 0-2.289.074-4.648 0-6.937 0-.715-.07-1.36-.07-2.075 1.156-.5 3.105 0 4.261.145.942.07 1.81-.145 2.75-.215 0 1.93.07 3.863.145 5.793.07 1 .434 2.934-.289 3.793-.363.426 1.227.285 1.3.285.65-.144 1.516-.36 1.95-.86.797-.929.363-3.148.363-4.292-.074-1.57-.074-3.219-.144-4.79 1.011-.144 2.023-.718 1.879-1.433zm-6.722-.141c-1.953-.075-3.832-.36-5.637.07-.074-1.074-.219-2.074-.289-3.149-.144-1.93.07-4.648 1.95-5.863.507-.289 1.445-.289 2.023-.36.797-.14 1.664-.355 2.387.145 1.011.645.796 3.075.796 4.078 0 1.645.145 3.36.29 5.004-.434.075-.942.075-1.446.075zM18.82 4.078c-.074.14 0 .356.145.5v.43c.07.215.215.355.36.43.363.214.722.214 1.085.214a3.61 3.61 0 001.227-.43c.074-.074.144-.144.218-.214.434-.285.793-.715.649-1.145-.434-.93-.36-1.86-.36-2.863 0-.785-.796-1.07-1.519-1-.578.07-1.805.5-1.805 1.29 0 .855-.074 1.714.07 2.503-.07.07-.07.21-.07.285zm61.793 28.969c-1.59-.574-3.324-.645-4.843-.785-1.59-.145-3.25-.43-4.915-.575-1.66.07-3.324 0-4.984.145l-4.918.285c-6.504.285-13.078.285-19.586.07-6.574-.14-13.082-.5-19.73-.43-3.325 0-6.578.075-9.903.216-1.66.289-3.25.5-4.914.93-1.59.429-3.18.929-4.84 1.074 1.66.359 3.325.285 4.985.285 1.59 0 3.254.144 4.914.215 3.254-.141 6.508-.215 9.758-.286 6.504 0 13.082.356 19.66.43 6.578.14 13.152.215 19.73-.144l4.914-.286c1.59-.07 3.18-.144 4.844-.07 1.66-.144 3.25-.36 4.914-.504 1.66-.21 3.254-.64 4.844-.5h.07v-.07c0-.145-.07-.285-.07-.5 0 .14-.074.285-.074.355zm0 0"/></svg>